{
	"asset":{
		"generator":"Khronos glTF Blender I/O v5.0.21",
		"version":"2.0"
	},
	"scene":0,
	"scenes":[
		{
			"name":"Scene",
			"nodes":[
				0,
				1
			]
		}
	],
	"nodes":[
		{
			"mesh":0,
			"name":"Cube.001",
			"scale":[
				3.0299999713897705,
				1.2949999570846558,
				1.2200000286102295
			]
		},
		{
			"mesh":1,
			"name":"Cube.002",
			"scale":[
				3.0299999713897705,
				1.2949999570846558,
				1.2200000286102295
			]
		}
	],
	"materials":[
		{
			"doubleSided":true,
			"name":"Material"
		},
		{
			"doubleSided":true,
			"name":"Raffle"
		}
	],
	"meshes":[
		{
			"name":"Cube.001",
			"primitives":[
				{
					"attributes":{
						"POSITION":0,
						"NORMAL":1,
						"TEXCOORD_0":2
					},
					"indices":3,
					"material":0
				}
			]
		},
		{
			"name":"Cube.002",
			"primitives":[
				{
					"attributes":{
						"POSITION":4,
						"NORMAL":5,
						"TEXCOORD_0":6
					},
					"indices":7,
					"material":1
				}
			]
		}
	],
	"accessors":[
		{
			"bufferView":0,
			"componentType":5126,
			"count":66,
			"max":[
				1.0302536487579346,
				1.9983230829238892,
				0.000825740396976471
			],
			"min":[
				0,
				-0.0016769170761108398,
				-1
			],
			"type":"VEC3"
		},
		{
			"bufferView":1,
			"componentType":5126,
			"count":66,
			"type":"VEC3"
		},
		{
			"bufferView":2,
			"componentType":5126,
			"count":66,
			"type":"VEC2"
		},
		{
			"bufferView":3,
			"componentType":5123,
			"count":108,
			"type":"SCALAR"
		},
		{
			"bufferView":4,
			"componentType":5126,
			"count":328,
			"max":[
				0.9699903726577759,
				1.955368995666504,
				-0.9586443901062012
			],
			"min":[
				-0.976408064365387,
				0.04127722978591919,
				-1.000666618347168
			],
			"type":"VEC3"
		},
		{
			"bufferView":5,
			"componentType":5126,
			"count":328,
			"type":"VEC3"
		},
		{
			"bufferView":6,
			"componentType":5126,
			"count":328,
			"type":"VEC2"
		},
		{
			"bufferView":7,
			"componentType":5123,
			"count":492,
			"type":"SCALAR"
		}
	],
	"bufferViews":[
		{
			"buffer":0,
			"byteLength":792,
			"byteOffset":0,
			"target":34962
		},
		{
			"buffer":0,
			"byteLength":792,
			"byteOffset":792,
			"target":34962
		},
		{
			"buffer":0,
			"byteLength":528,
			"byteOffset":1584,
			"target":34962
		},
		{
			"buffer":0,
			"byteLength":216,
			"byteOffset":2112,
			"target":34963
		},
		{
			"buffer":0,
			"byteLength":3936,
			"byteOffset":2328,
			"target":34962
		},
		{
			"buffer":0,
			"byteLength":3936,
			"byteOffset":6264,
			"target":34962
		},
		{
			"buffer":0,
			"byteLength":2624,
			"byteOffset":10200,
			"target":34962
		},
		{
			"buffer":0,
			"byteLength":984,
			"byteOffset":12824,
			"target":34963
		}
	],
	"buffers":[
		{
			"byteLength":13808,
			"uri":"ContainerLife.bin"
		}
	]
}
